Coordinates
version=1
nRows=8
nColumns=40
inDegrees=yes

Units are S.I. units (second, meters, Newtons, ...)
If the header above contains a line with 'inDegrees', this indicates whether rotational values are in degrees (yes) or radians (no).

endheader
time	pelvis_tilt	pelvis_list	pelvis_rotation	pelvis_tx	pelvis_ty	pelvis_tz	hip_flexion_r	hip_adduction_r	hip_rotation_r	knee_angle_r	knee_angle_r_beta	ankle_angle_r	subtalar_angle_r	mtp_angle_r	hip_flexion_l	hip_adduction_l	hip_rotation_l	knee_angle_l	knee_angle_l_beta	ankle_angle_l	subtalar_angle_l	mtp_angle_l	lumbar_extension	lumbar_bending	lumbar_rotation	arm_flex_r	arm_add_r	arm_rot_r	elbow_flex_r	pro_sup_r	wrist_flex_r	wrist_dev_r	arm_flex_l	arm_add_l	arm_rot_l	elbow_flex_l	pro_sup_l	wrist_flex_l	wrist_dev_l
      5.75999999999999978684	     37.46590994355723580611	      2.88954023380419799949	   -177.21901335496858109764	      0.40320852344201535411	      0.80777533468771478553	     -0.61379832199230244250	     66.90207632941202575694	     -9.19637167472052929895	    -14.36158885893646619536	     27.97474185216692887934	      0.48825135271576974860	     -0.76017248821162131112	      0.00000000000000000000	      0.00000000000000000000	     68.12341337738234869903	     -6.41071294679889547297	     -1.77908903982728960891	     25.94703541845569461088	      0.45286119918363654246	     -5.23166912064380085212	      0.00000000000000000000	      0.00000000000000000000	    -13.82728195078876787250	      8.79764255438880660165	      3.04971776104765446291	     44.20921566826648074766	    -12.81448196488618584965	     62.91525507316801935076	      0.87935696515784245175	     84.06133306704469987380	      0.00000000000000000000	      0.00000000000000000000	     33.22120291512241152532	     -4.64137910592359226314	     86.70901533485108814148	      0.56286997515811976189	      2.51135534406034821586	      0.00000000000000000000	      0.00000000000000000000
      5.76499999999999968026	     37.27344181767036701558	      2.92637334379372671123	   -177.18589807955319770372	      0.40258257748678477617	      0.80815731857510342273	     -0.61406969696500701694	     66.69559533444933663304	     -9.16097545744751506902	    -14.31495039199434415877	     28.04799476114573053565	      0.48952985716411351325	     -0.76291414707070925871	      0.00000000000000000000	      0.00000000000000000000	     67.92700969475220063032	     -6.43616275156190020823	     -1.74867584281363330767	     25.98647159308395870880	      0.45354949027529117833	     -5.23521088942650703046	      0.00000000000000000000	      0.00000000000000000000	    -13.42435686922711823854	      8.77317504537686865262	      3.01707777267468957305	     43.79966091378027215342	    -12.79848584783240106333	     62.91889980099080048603	      0.86013151776530683001	     84.07824482940861798852	      0.00000000000000000000	      0.00000000000000000000	     33.05961058445477362966	     -4.69937874818047163217	     86.70157030718917212653	      0.56531796251703514411	      2.51444074775667747446	      0.00000000000000000000	      0.00000000000000000000
      5.76999999999999957367	     36.74499993407115994160	      3.01155264002225386832	   -176.95282894285580255200	      0.40136838786605288920	      0.80887749329291069866	     -0.61383232600874437779	     66.18865925498364788382	     -9.35583389613816329700	    -14.50542484900800666026	     28.45762466944556834392	      0.49667924777858812879	     -0.17729100683492418633	      0.00000000000000000000	      0.00000000000000000000	     67.39190731538377576726	     -6.31372858127742464518	     -1.57703328320979307975	     26.12616832102896680112	      0.45598765813219438447	     -4.85007071455670679683	      0.00000000000000000000	      0.00000000000000000000	    -13.35912194745963788023	      8.91488572613767793484	      2.81338663095195284924	     43.45929570184463131000	    -12.84420590835181030798	     63.17075451930946883294	      0.88908019478738375962	     84.06702442476778003311	      0.00000000000000000000	      0.00000000000000000000	     32.72402474419141782391	     -4.75932127562380813401	     86.98283957774363273074	      0.56906043982269538528	      2.56572712854243389913	      0.00000000000000000000	      0.00000000000000000000
      5.77500000000000035527	     36.56687213306560124693	      3.05519712827706291236	   -176.90273186338336586232	      0.40073719058311069174	      0.80926520020310177550	     -0.61406074290687306938	     65.98970642790520457766	     -9.33730175516647520340	    -14.45767018254666780308	     28.52002707926634528235	      0.49776837529113954206	     -0.20298613066421836160	      0.00000000000000000000	      0.00000000000000000000	     67.19341236014800244902	     -6.35964884559287657595	     -1.56183847524136321105	     26.17321484528701347472	      0.45680877488211663051	     -4.86687860907454172832	      0.00000000000000000000	      0.00000000000000000000	    -12.93386188958714733133	      8.90578433562340698870	      2.77269857451093937328	     43.04127124544378091286	    -12.80838470111101834448	     63.18251929231067265391	      0.87538396089945902379	     84.08563030740859289835	      0.00000000000000000000	      0.00000000000000000000	     32.52509378106216075821	     -4.81022764302684979754	     86.97017788363807255791	      0.57289713152765953108	      2.56813357632230765404	      0.00000000000000000000	      0.00000000000000000000
      5.78000000000000024869	     36.34695503723965970266	      3.11703665810939734016	   -176.81117960919200982062	      0.39993551284390727041	      0.80963774545272082506	     -0.61409505093112315421	     65.75465084072439481133	     -9.36340699573545620638	    -14.41654714131180625714	     28.65833997887218487222	      0.50018239078724180402	     -0.15912399192025081240	      0.00000000000000000000	      0.00000000000000000000	     66.98544259081872098704	     -6.37147788786135826911	     -1.59581206286854149212	     26.27224136713681446054	      0.45853711373519379091	     -4.83778361775478682461	      0.00000000000000000000	      0.00000000000000000000	    -12.53531426543695914688	      8.95438551560692985731	      2.66881996431268220249	     42.66788876733878765890	    -12.83439933634008411900	     63.24615972586842360670	      0.89218439219738654433	     84.10207242121025217330	      0.00000000000000000000	      0.00000000000000000000	     32.14797427884720804059	     -4.84605534961178552322	     87.00310102636257170161	      0.57618086970091497712	      2.58094533868539910415	      0.00000000000000000000	      0.00000000000000000000
      5.78500000000000014211	     35.63180744722843229511	      4.02095444494683107450	   -176.34336884999353856074	      0.39838692400544689631	      0.81051273759238740002	     -0.61415155561971190856	     64.73389616648506716956	     -9.27460267199418275652	    -15.71031082662165800912	     28.80340424830700030157	      0.50271423991587949054	      0.34747071300262583060	      0.00000000000000000000	      0.00000000000000000000	     66.52391990941795540948	     -6.38989041260198575856	      0.03127885336914112968	     26.55346242739344475581	      0.46344534716262136831	     -4.37617015669321052229	      0.00000000000000000000	      0.00000000000000000000	    -12.58825704309121995550	      9.98205249987596587857	      2.36245770106201069538	     42.34676610166938814928	    -12.89758951866256886376	     64.33938409641116606963	      0.91254452081431747246	     83.65102318890818366981	      0.00000000000000000000	      0.00000000000000000000	     31.85936056254783821373	     -4.90599732923800324613	     87.23989909019311994598	      0.57688359626691476656	      2.58008502306016351824	      0.00000000000000000000	      0.00000000000000000000
      5.79000000000000003553	     35.10058180801184590791	      4.38855228646159734041	   -176.35754381613639907300	      0.39690409771473950107	      0.81125079789925391704	     -0.61485485530419481393	     64.05735644165967812569	     -8.95481770375961794173	    -16.03810669984065739868	     28.88218339370811804656	      0.50408919538503638158	      0.61769731492734381018	      0.00000000000000000000	      0.00000000000000000000	     66.00469277234462595061	     -6.58570506957721057972	      0.95184719119129523879	     26.68419850226684886252	      0.46572712212029609979	     -3.97892491223970212744	      0.00000000000000000000	      0.00000000000000000000	    -12.52330489106546096423	     10.36353896328471968502	      2.39155329358247437099	     42.02180578073777184045	    -12.86656311340431635415	     65.00335094791033441197	      0.91020449156065041940	     83.94922777840380945236	      0.00000000000000000000	      0.00000000000000000000	     31.52697096230338402734	     -5.00661426662620456796	     87.18813810007610243247	      0.58614708781448265906	      2.64774032834071748610	      0.00000000000000000000	      0.00000000000000000000
      5.79499999999999992895	     34.91914821111850386615	      4.43040137334444761308	   -176.32490167820949977795	      0.39617197129193038041	      0.81157425360614587895	     -0.61509129430519327020	     63.84590153994334116305	     -8.91673217397938699946	    -15.99842231736017339472	     28.94650377505096017217	      0.50521179781560732192	      0.60039395172034537573	      0.00000000000000000000	      0.00000000000000000000	     65.82036476757741638721	     -6.63660578246067700547	      0.98779009100209258509	     26.73872818311342669517	      0.46667884459113057050	     -3.99295387394806455816	      0.00000000000000000000	      0.00000000000000000000	    -12.06991121881106288072	     10.28653845580125469894	      2.35092391085036700460	     41.57379816728139587667	    -12.82869373663474377167	     65.00201542592543546562	      0.90345515300715029117	     83.96404612844837345165	      0.00000000000000000000	      0.00000000000000000000	     31.33768309737148527461	     -5.05336964262898558076	     87.17706806109086414835	      0.58684462468291098691	      2.64858671743153317735	      0.00000000000000000000	      0.00000000000000000000
